<svg width="96" height="60" viewBox="0 0 96 60" fill="none" xmlns="http://www.w3.org/2000/svg">
<g clip-path="url(#clip0_4925_11313)">
<g clip-path="url(#clip1_4925_11313)">
<path d="M35.8364 9.29758C37.0968 9.30316 41.6962 9.56227 45.1176 12.864C46.5551 14.1371 47.4336 15.5839 48 16.94C48.5664 15.5839 49.4449 14.1371 50.8824 12.864C54.3038 9.56227 58.9032 9.30316 60.1636 9.29758C60.355 9.29672 60.5017 9.44367 60.5 9.63359C60.49 10.8333 60.1901 15.0537 56.6471 18.1973C53.0004 21.713 49.3889 21.6726 48 21.6726C46.6111 21.6726 43.0004 21.7134 39.3528 18.1973C35.8094 15.0532 35.51 10.8333 35.5 9.63359C35.4982 9.44367 35.6449 9.29672 35.8364 9.29758ZM48.0009 14.0499C47.4444 13.24 46.8029 12.5125 46.0872 11.8791C45.2587 11.0795 44.3693 10.4483 43.4718 9.93781C44.1853 6.90852 45.7166 4.22082 47.6701 2.53773C47.8485 2.38391 48.1484 2.38391 48.3272 2.53773C50.2799 4.21953 51.8112 6.90465 52.526 9.93137C51.6419 10.4341 50.7682 11.0546 49.9557 11.8387C49.2161 12.4948 48.5597 13.2373 48.0009 14.0499Z" fill="white"/>
</g>
<path d="M17.001 29.1406C16.8657 30.7839 16.798 32.2533 16.798 33.5486C16.798 34.4573 16.827 35.1919 16.885 35.7526H16.218C15.8313 33.5679 15.2513 32.0309 14.478 31.1416C13.7047 30.2523 12.622 29.8076 11.23 29.8076H10.273C9.67367 29.8076 9.23867 29.8559 8.968 29.9526C8.69733 30.0493 8.51367 30.2426 8.417 30.5326C8.32033 30.8033 8.272 31.2479 8.272 31.8666V39.1746H9.287C10.3117 39.1746 11.085 38.7976 11.607 38.0436C12.1483 37.2896 12.5253 36.3906 12.738 35.3466H13.405C13.347 36.1586 13.318 37.0673 13.318 38.0726V39.4646C13.318 40.4506 13.376 41.8233 13.492 43.5826H12.825C12.419 41.0306 11.2397 39.7546 9.287 39.7546H8.272V46.4246C8.272 47.1979 8.34933 47.7683 8.504 48.1356C8.678 48.4836 8.968 48.7156 9.374 48.8316C9.79933 48.9476 10.4663 49.0153 11.375 49.0346V49.6726C8.997 49.6146 7.228 49.5856 6.068 49.5856C5.10133 49.5856 3.88333 49.6049 2.414 49.6436L1.486 49.6726V49.0926C2.124 49.0539 2.588 48.9766 2.878 48.8606C3.18733 48.7446 3.39033 48.5223 3.487 48.1936C3.603 47.8649 3.661 47.3333 3.661 46.5986V32.2146C3.661 31.4799 3.603 30.9483 3.487 30.6196C3.39033 30.2909 3.18733 30.0686 2.878 29.9526C2.588 29.8366 2.124 29.7593 1.486 29.7206V29.1406C3.574 29.1986 6.72533 29.2276 10.94 29.2276C13.782 29.2276 15.8023 29.1986 17.001 29.1406ZM24.0475 46.9756C24.0475 47.7683 24.1829 48.3193 24.4535 48.6286C24.7242 48.9186 25.2075 49.0636 25.9035 49.0636V49.6726C23.8929 49.5953 22.5975 49.5566 22.0175 49.5566C21.3602 49.5566 20.0262 49.5953 18.0155 49.6726V49.0636C18.6922 49.0636 19.1659 48.9186 19.4365 48.6286C19.7265 48.3193 19.8715 47.7683 19.8715 46.9756V30.4456C19.8715 29.5563 19.7265 28.9086 19.4365 28.5026C19.1659 28.0966 18.6922 27.8936 18.0155 27.8936V27.2846C18.6342 27.3426 19.2335 27.3716 19.8135 27.3716C21.4955 27.3716 22.9069 27.2363 24.0475 26.9656V46.9756ZM34.3362 34.2736C36.5595 34.2736 38.2995 34.9116 39.5562 36.1876C40.8129 37.4443 41.4412 39.4453 41.4412 42.1906C41.4412 44.9359 40.8129 46.9369 39.5562 48.1936C38.2995 49.4503 36.5595 50.0786 34.3362 50.0786C32.1322 50.0786 30.3922 49.4503 29.1162 48.1936C27.8595 46.9369 27.2312 44.9359 27.2312 42.1906C27.2312 39.4453 27.8595 37.4443 29.1162 36.1876C30.3922 34.9116 32.1322 34.2736 34.3362 34.2736ZM34.3362 34.8536C33.5049 34.8536 32.8379 35.4626 32.3352 36.6806C31.8519 37.8793 31.6102 39.7159 31.6102 42.1906C31.6102 44.6653 31.8519 46.5019 32.3352 47.7006C32.8379 48.8993 33.5049 49.4986 34.3362 49.4986C35.1869 49.4986 35.8539 48.9089 36.3372 47.7296C36.8205 46.5309 37.0622 44.6846 37.0622 42.1906C37.0622 39.6966 36.8109 37.8503 36.3082 36.6516C35.8249 35.4529 35.1675 34.8536 34.3362 34.8536ZM62.8348 34.7666C63.8208 34.7666 64.5555 34.7376 65.0388 34.6796V35.2596C64.6328 35.3756 64.2655 35.6173 63.9368 35.9846C63.6082 36.3519 63.3182 36.9416 63.0668 37.7536L59.2098 49.7306C58.9972 49.7113 58.6782 49.7016 58.2528 49.7016C57.8468 49.7016 57.5375 49.7113 57.3248 49.7306L53.3808 38.9716L50.1618 49.7306C49.9685 49.7113 49.6592 49.7016 49.2338 49.7016C48.8085 49.7016 48.4895 49.7113 48.2768 49.7306L43.6948 36.9126C43.4628 36.2359 43.2018 35.8009 42.9118 35.6076C42.6218 35.3949 42.3222 35.2886 42.0128 35.2886V34.6796C43.2695 34.7956 44.6422 34.8536 46.1308 34.8536C47.0975 34.8536 48.3542 34.7956 49.9008 34.6796V35.2886C49.2628 35.2886 48.7988 35.3369 48.5088 35.4336C48.2382 35.5303 48.1028 35.7623 48.1028 36.1296C48.1028 36.3809 48.1512 36.6419 48.2478 36.9126L50.8578 45.1196L54.0188 34.6506L55.0918 34.6796L56.1358 34.6506L59.9058 45.7286L61.7328 39.8996C62.0035 38.9909 62.1388 38.2563 62.1388 37.6956C62.1388 36.1876 61.3752 35.3756 59.8478 35.2596V34.6796C60.7565 34.7376 61.7522 34.7666 62.8348 34.7666ZM79.1158 37.4636C78.7292 37.4636 78.4005 37.3379 78.1298 37.0866C77.8592 36.8159 77.7238 36.4389 77.7238 35.9556C77.7238 35.4916 77.8398 35.0179 78.0718 34.5346C77.6078 34.7279 77.2212 34.9503 76.9118 35.2016C76.6218 35.4336 76.3705 35.7333 76.1578 36.1006C76.7572 36.8159 77.0568 37.7439 77.0568 38.8846C77.0568 40.4119 76.5252 41.5623 75.4618 42.3356C74.4178 43.1089 73.0258 43.4956 71.2858 43.4956H70.7638C69.9712 43.9596 69.5748 44.4719 69.5748 45.0326C69.5748 45.6513 69.9615 45.9606 70.7348 45.9606H73.8958C75.5972 45.9606 76.9505 46.2796 77.9558 46.9176C78.9805 47.5363 79.4928 48.4933 79.4928 49.7886C79.4928 50.7746 79.1738 51.6639 78.5358 52.4566C77.9172 53.2686 76.9698 53.9163 75.6938 54.3996C74.4178 54.8829 72.8518 55.1246 70.9958 55.1246C69.1205 55.1246 67.6125 54.8829 66.4718 54.3996C65.3505 53.9356 64.7898 53.2589 64.7898 52.3696C64.7898 51.7703 65.0605 51.2289 65.6018 50.7456C66.1432 50.2816 66.9455 49.9143 68.0088 49.6436L68.2698 50.1076C67.5738 50.6876 67.2258 51.3546 67.2258 52.1086C67.2258 52.9206 67.5932 53.5393 68.3278 53.9646C69.0625 54.4093 70.0775 54.6316 71.3728 54.6316C72.7262 54.6316 73.8185 54.3609 74.6498 53.8196C75.5005 53.2783 75.9258 52.5146 75.9258 51.5286C75.9258 50.8906 75.6842 50.3879 75.2008 50.0206C74.7368 49.6533 73.9152 49.4696 72.7358 49.4696H70.9378C69.7005 49.4696 68.7338 49.2666 68.0378 48.8606C67.3418 48.4353 66.9938 47.7973 66.9938 46.9466C66.9938 46.2313 67.2452 45.5933 67.7478 45.0326C68.2505 44.4719 69.0142 43.9306 70.0388 43.4086C68.6468 43.2346 67.5448 42.7706 66.7328 42.0166C65.9208 41.2626 65.5148 40.2186 65.5148 38.8846C65.5148 37.3573 66.0368 36.2069 67.0808 35.4336C68.1442 34.6603 69.5458 34.2736 71.2858 34.2736C73.2192 34.2736 74.6982 34.7279 75.7228 35.6366C76.0902 35.1146 76.5445 34.6989 77.0858 34.3896C77.6272 34.0803 78.1782 33.9256 78.7388 33.9256C79.3188 33.9256 79.7732 34.0996 80.1018 34.4476C80.4498 34.7763 80.6238 35.2113 80.6238 35.7526C80.6238 36.2939 80.4692 36.7193 80.1598 37.0286C79.8698 37.3186 79.5218 37.4636 79.1158 37.4636ZM71.2858 42.9736C71.8272 42.9736 72.2332 42.6643 72.5038 42.0456C72.7938 41.4269 72.9388 40.3733 72.9388 38.8846C72.9388 37.3959 72.7938 36.3423 72.5038 35.7236C72.2332 35.1049 71.8272 34.7956 71.2858 34.7956C70.7445 34.7956 70.3288 35.1049 70.0388 35.7236C69.7682 36.3423 69.6328 37.3959 69.6328 38.8846C69.6328 40.3733 69.7682 41.4269 70.0388 42.0456C70.3288 42.6643 70.7445 42.9736 71.2858 42.9736ZM84.9439 49.8756C83.7066 49.8756 82.7786 49.5566 82.1599 48.9186C81.5606 48.2806 81.2609 47.4396 81.2609 46.3956C81.2609 45.5256 81.4833 44.8103 81.9279 44.2496C82.3919 43.6696 82.9429 43.2249 83.5809 42.9156C84.2383 42.6063 85.0696 42.2776 86.0749 41.9296C87.1383 41.5623 87.9116 41.2336 88.3949 40.9436C88.8976 40.6343 89.1489 40.2186 89.1489 39.6966V37.4346C89.1489 36.6226 88.9556 35.9943 88.5689 35.5496C88.2016 35.0856 87.6216 34.8536 86.8289 34.8536C85.9009 34.8536 85.1953 35.0856 84.7119 35.5496C85.2533 35.7429 85.6689 36.0329 85.9589 36.4196C86.2683 36.8063 86.4229 37.2606 86.4229 37.7826C86.4229 38.4399 86.2006 38.9619 85.7559 39.3486C85.3113 39.7353 84.7699 39.9286 84.1319 39.9286C83.4553 39.9286 82.9333 39.7159 82.5659 39.2906C82.1986 38.8653 82.0149 38.3336 82.0149 37.6956C82.0149 37.1543 82.1406 36.6999 82.3919 36.3326C82.6626 35.9459 83.0686 35.5883 83.6099 35.2596C84.1319 34.9503 84.7699 34.7086 85.5239 34.5346C86.2973 34.3606 87.1383 34.2736 88.0469 34.2736C88.9943 34.2736 89.8159 34.3703 90.5119 34.5636C91.2079 34.7569 91.7879 35.0856 92.2519 35.5496C92.6773 35.9749 92.9576 36.4969 93.0929 37.1156C93.2476 37.7343 93.3249 38.5753 93.3249 39.6386V47.5266C93.3249 47.9906 93.3636 48.3193 93.4409 48.5126C93.5376 48.7059 93.7116 48.8026 93.9629 48.8026C94.2529 48.8026 94.6009 48.6383 95.0069 48.3096L95.2969 48.8026C94.4269 49.5179 93.3636 49.8756 92.1069 49.8756C91.0436 49.8756 90.2993 49.6629 89.8739 49.2376C89.4486 48.8123 89.2263 48.2419 89.2069 47.5266C88.2403 49.0926 86.8193 49.8756 84.9439 49.8756ZM87.1769 48.0196C87.9309 48.0196 88.5883 47.6233 89.1489 46.8306V40.8856C88.9169 41.2723 88.4239 41.6976 87.6699 42.1616C86.9159 42.6449 86.3456 43.1283 85.9589 43.6116C85.5723 44.0949 85.3789 44.7909 85.3789 45.6996C85.3789 46.4923 85.5433 47.0819 85.8719 47.4686C86.2006 47.8359 86.6356 48.0196 87.1769 48.0196Z" fill="#FEFAF7"/>
</g>
<defs>
<clipPath id="clip0_4925_11313">
<rect width="95" height="59.2502" fill="white" transform="translate(0.5 0.422363)"/>
</clipPath>
<clipPath id="clip1_4925_11313">
<rect width="29" height="21.2502" fill="white" transform="matrix(-1 0 0 1 62.5 0.422363)"/>
</clipPath>
</defs>
</svg>
