<svg width="129" height="30" viewBox="0 0 129 30" fill="none" xmlns="http://www.w3.org/2000/svg">
<g clip-path="url(#clip0_4925_11267)">
<path d="M2.33639 13.2501C3.5968 13.2557 8.19619 13.5148 11.6176 16.8165C13.0551 18.0897 13.9336 19.5364 14.5 20.8925C15.0664 19.5364 15.9449 18.0897 17.3824 16.8165C20.8038 13.5148 25.4032 13.2557 26.6636 13.2501C26.855 13.2492 27.0018 13.3962 27 13.5861C26.99 14.7858 26.6901 19.0062 23.1472 22.1498C19.5004 25.6655 15.8889 25.6251 14.5 25.6251C13.1111 25.6251 9.50045 25.6659 5.85288 22.1498C2.30947 19.0058 2.01 14.7858 2.00001 13.5861C1.99828 13.3962 2.14498 13.2492 2.33639 13.2501ZM14.5009 18.0024C13.9445 17.1925 13.303 16.465 12.5873 15.8317C11.7587 15.032 10.8694 14.4008 9.9718 13.8903C10.6853 10.861 12.2166 8.17334 14.1702 6.49025C14.3485 6.33642 14.6485 6.33642 14.8273 6.49025C16.78 8.17205 18.3112 10.8572 19.0261 13.8839C18.1419 14.3866 17.2682 15.0071 16.4557 15.7913C15.7162 16.4473 15.0597 17.1898 14.5009 18.0024Z" fill="#513126"/>
</g>
<path d="M51.167 3.0955C51.0897 3.92683 51.0317 4.72917 50.993 5.5025C50.9737 6.27583 50.964 6.8655 50.964 7.2715C50.964 7.71617 50.9737 8.13183 50.993 8.5185C51.0124 8.90517 51.0317 9.2435 51.051 9.5335H50.384C50.1714 8.0835 49.8814 6.94283 49.514 6.1115C49.1467 5.26083 48.6537 4.6615 48.035 4.3135C47.4164 3.94617 46.5947 3.7625 45.57 3.7625H44.323C43.743 3.7625 43.2984 3.81083 42.989 3.9075C42.6797 4.00417 42.467 4.20717 42.351 4.5165C42.2544 4.82583 42.206 5.2995 42.206 5.9375V20.4375C42.206 21.1722 42.2834 21.7232 42.438 22.0905C42.5927 22.4578 42.8924 22.6995 43.337 22.8155C43.7817 22.9315 44.4197 22.9992 45.251 23.0185V23.6275C44.6904 23.5888 43.9654 23.5695 43.076 23.5695C42.1867 23.5502 41.2684 23.5405 40.321 23.5405C39.509 23.5405 38.726 23.5502 37.972 23.5695C37.218 23.5695 36.5607 23.5888 36 23.6275V23.0475C36.638 23.0088 37.1117 22.9315 37.421 22.8155C37.7497 22.6995 37.9624 22.4675 38.059 22.1195C38.175 21.7715 38.233 21.2495 38.233 20.5535V6.1695C38.233 5.45417 38.175 4.93217 38.059 4.6035C37.9624 4.2555 37.7497 4.0235 37.421 3.9075C37.1117 3.77217 36.638 3.69483 36 3.6755V3.0955C36.7734 3.11483 37.5854 3.13417 38.436 3.1535C39.306 3.1535 40.1567 3.16317 40.988 3.1825C41.8387 3.1825 42.6217 3.1825 43.337 3.1825C44.0717 3.1825 44.6614 3.1825 45.106 3.1825C45.9954 3.1825 47.0007 3.1825 48.122 3.1825C49.2627 3.16317 50.2777 3.13417 51.167 3.0955ZM46.788 13.1875C46.788 13.1875 46.788 13.2842 46.788 13.4775C46.788 13.6708 46.788 13.7675 46.788 13.7675H41.336C41.336 13.7675 41.336 13.6708 41.336 13.4775C41.336 13.2842 41.336 13.1875 41.336 13.1875H46.788ZM47.455 9.3595C47.3777 10.4615 47.339 11.3025 47.339 11.8825C47.3584 12.4625 47.368 12.9942 47.368 13.4775C47.368 13.9608 47.3777 14.4925 47.397 15.0725C47.4164 15.6525 47.4647 16.4935 47.542 17.5955H46.875C46.7977 16.9382 46.6527 16.3195 46.44 15.7395C46.2274 15.1402 45.8987 14.6665 45.454 14.3185C45.0287 13.9512 44.41 13.7675 43.598 13.7675V13.1875C44.1974 13.1875 44.6904 13.0618 45.077 12.8105C45.4637 12.5592 45.7634 12.2402 45.976 11.8535C46.208 11.4475 46.382 11.0318 46.498 10.6065C46.6334 10.1618 46.73 9.74617 46.788 9.3595H47.455Z" fill="#513126"/>
<path d="M57.8993 0.9205V20.9305C57.8993 21.7425 58.0443 22.2935 58.3343 22.5835C58.6437 22.8735 59.156 23.0185 59.8713 23.0185V23.6275C59.5233 23.6082 58.9917 23.5888 58.2763 23.5695C57.5803 23.5308 56.865 23.5115 56.1303 23.5115C55.415 23.5115 54.6803 23.5308 53.9263 23.5695C53.1917 23.5888 52.6407 23.6082 52.2733 23.6275V23.0185C52.9887 23.0185 53.4913 22.8735 53.7813 22.5835C54.0907 22.2935 54.2453 21.7425 54.2453 20.9305V4.4005C54.2453 3.5305 54.11 2.8925 53.8393 2.4865C53.5687 2.06117 53.0467 1.8485 52.2733 1.8485V1.2395C52.892 1.2975 53.4913 1.3265 54.0713 1.3265C54.806 1.3265 55.4923 1.2975 56.1303 1.2395C56.7683 1.16217 57.358 1.05583 57.8993 0.9205Z" fill="#513126"/>
<path d="M68.3094 8.2285C69.6434 8.2285 70.8228 8.49917 71.8474 9.0405C72.8914 9.5625 73.7131 10.4035 74.3124 11.5635C74.9311 12.7235 75.2404 14.2508 75.2404 16.1455C75.2404 18.0402 74.9311 19.5675 74.3124 20.7275C73.7131 21.8875 72.8914 22.7285 71.8474 23.2505C70.8228 23.7725 69.6434 24.0335 68.3094 24.0335C66.9754 24.0335 65.7864 23.7725 64.7424 23.2505C63.6984 22.7285 62.8768 21.8875 62.2774 20.7275C61.6781 19.5675 61.3784 18.0402 61.3784 16.1455C61.3784 14.2508 61.6781 12.7235 62.2774 11.5635C62.8768 10.4035 63.6984 9.5625 64.7424 9.0405C65.7864 8.49917 66.9754 8.2285 68.3094 8.2285ZM68.3094 8.8085C67.4008 8.8085 66.6564 9.3885 66.0764 10.5485C65.5158 11.6892 65.2354 13.5548 65.2354 16.1455C65.2354 18.7362 65.5158 20.6018 66.0764 21.7425C66.6564 22.8832 67.4008 23.4535 68.3094 23.4535C69.1988 23.4535 69.9334 22.8832 70.5134 21.7425C71.0934 20.6018 71.3834 18.7362 71.3834 16.1455C71.3834 13.5548 71.0934 11.6892 70.5134 10.5485C69.9334 9.3885 69.1988 8.8085 68.3094 8.8085Z" fill="#513126"/>
<path d="M83.3271 8.6345V9.2435C82.8631 9.2435 82.4668 9.28217 82.1381 9.3595C81.8095 9.4175 81.5871 9.57217 81.4711 9.8235C81.3745 10.0748 81.4228 10.5195 81.6161 11.1575L84.4581 19.7995L84.1391 20.0315L87.8221 8.5765L88.4311 8.8665L83.7041 23.7145C83.4721 23.6952 83.2305 23.6855 82.9791 23.6855C82.7471 23.6855 82.5151 23.6952 82.2831 23.7145L77.6431 10.8675C77.3338 10.0942 77.0245 9.63017 76.7151 9.4755C76.4251 9.32084 76.1738 9.2435 75.9611 9.2435V8.6345C76.5025 8.6925 77.0631 8.74083 77.6431 8.7795C78.2231 8.79883 78.8611 8.8085 79.5571 8.8085C80.1565 8.8085 80.7848 8.78917 81.4421 8.7505C82.1188 8.71183 82.7471 8.67317 83.3271 8.6345ZM98.7261 8.6345V9.2435C98.3588 9.32083 98.0011 9.52383 97.6531 9.8525C97.3245 10.1618 97.0248 10.7418 96.7541 11.5925L92.7811 23.7145C92.5491 23.6952 92.3171 23.6855 92.0851 23.6855C91.8531 23.6855 91.6115 23.6952 91.3601 23.7145L87.0971 12.3175L87.8511 8.5765C88.1218 8.59583 88.3925 8.6055 88.6631 8.6055C88.9338 8.6055 89.2045 8.59583 89.4751 8.5765L93.6221 20.3795L93.3321 20.2345L95.5941 13.2165C95.8841 12.2885 95.9905 11.5442 95.9131 10.9835C95.8551 10.4228 95.6328 10.0072 95.2461 9.7365C94.8788 9.4465 94.3665 9.28217 93.7091 9.2435V8.6345C94.0185 8.65383 94.3375 8.67317 94.6661 8.6925C94.9948 8.71183 95.3138 8.73117 95.6231 8.7505C95.9325 8.7505 96.2225 8.7505 96.4931 8.7505C96.8991 8.7505 97.3051 8.74083 97.7111 8.7215C98.1171 8.70217 98.4555 8.67317 98.7261 8.6345Z" fill="#513126"/>
<path d="M104.686 29.0795C103.545 29.0795 102.511 28.9732 101.583 28.7605C100.655 28.5478 99.9202 28.2288 99.3789 27.8035C98.8375 27.3975 98.5669 26.8755 98.5669 26.2375C98.5669 25.6188 98.8375 25.0678 99.3789 24.5845C99.9202 24.1012 100.713 23.7338 101.757 23.4825L101.96 23.9465C101.593 24.1592 101.312 24.4492 101.119 24.8165C100.926 25.1838 100.829 25.5705 100.829 25.9765C100.829 26.8078 101.206 27.4458 101.96 27.8905C102.733 28.3545 103.758 28.5865 105.034 28.5865C105.904 28.5865 106.706 28.4705 107.441 28.2385C108.176 28.0065 108.765 27.6488 109.21 27.1655C109.655 26.6822 109.877 26.0828 109.877 25.3675C109.877 24.7682 109.655 24.2655 109.21 23.8595C108.785 23.4535 107.924 23.2505 106.629 23.2505H104.715C104 23.2505 103.342 23.1732 102.743 23.0185C102.163 22.8638 101.699 22.6125 101.351 22.2645C101.003 21.9165 100.829 21.4332 100.829 20.8145C100.829 20.0605 101.138 19.3838 101.757 18.7845C102.376 18.1658 103.342 17.5665 104.657 16.9865L104.976 17.2475C104.493 17.4988 104.058 17.7695 103.671 18.0595C103.304 18.3495 103.12 18.7168 103.12 19.1615C103.12 19.7802 103.545 20.0895 104.396 20.0895H107.673C108.678 20.0895 109.568 20.2152 110.341 20.4665C111.134 20.7178 111.762 21.1142 112.226 21.6555C112.69 22.1968 112.922 22.9122 112.922 23.8015C112.922 24.7295 112.622 25.5898 112.023 26.3825C111.424 27.1945 110.515 27.8422 109.297 28.3255C108.098 28.8282 106.561 29.0795 104.686 29.0795ZM104.947 17.4505C103.903 17.4505 102.956 17.2958 102.105 16.9865C101.274 16.6578 100.616 16.1552 100.133 15.4785C99.6495 14.7825 99.4079 13.9028 99.4079 12.8395C99.4079 11.7762 99.6495 10.9062 100.133 10.2295C100.616 9.55283 101.274 9.05017 102.105 8.7215C102.956 8.39283 103.903 8.2285 104.947 8.2285C106.01 8.2285 106.958 8.39283 107.789 8.7215C108.62 9.05017 109.278 9.55283 109.761 10.2295C110.244 10.9062 110.486 11.7762 110.486 12.8395C110.486 13.9028 110.244 14.7825 109.761 15.4785C109.278 16.1552 108.62 16.6578 107.789 16.9865C106.958 17.2958 106.01 17.4505 104.947 17.4505ZM104.947 16.9285C105.527 16.9285 105.981 16.6385 106.31 16.0585C106.658 15.4592 106.832 14.3862 106.832 12.8395C106.832 11.2928 106.658 10.2295 106.31 9.6495C105.981 9.05017 105.527 8.7505 104.947 8.7505C104.367 8.7505 103.903 9.05017 103.555 9.6495C103.226 10.2295 103.062 11.2928 103.062 12.8395C103.062 14.3862 103.226 15.4592 103.555 16.0585C103.903 16.6385 104.367 16.9285 104.947 16.9285ZM109.326 10.6935L108.775 10.4905C109.065 9.77517 109.539 9.17583 110.196 8.6925C110.853 8.18983 111.549 7.9385 112.284 7.9385C112.845 7.9385 113.28 8.09317 113.589 8.4025C113.918 8.71183 114.082 9.14684 114.082 9.7075C114.082 10.2875 113.927 10.7128 113.618 10.9835C113.309 11.2542 112.97 11.3895 112.603 11.3895C112.274 11.3895 111.975 11.2832 111.704 11.0705C111.433 10.8385 111.279 10.4905 111.24 10.0265C111.201 9.54317 111.356 8.94383 111.704 8.2285L111.994 8.3445C111.24 8.6345 110.679 8.9535 110.312 9.3015C109.945 9.6495 109.616 10.1135 109.326 10.6935Z" fill="#513126"/>
<path d="M118.726 23.8305C117.895 23.8305 117.189 23.6758 116.609 23.3665C116.029 23.0378 115.594 22.6028 115.304 22.0615C115.014 21.5008 114.869 20.8822 114.869 20.2055C114.869 19.3742 115.063 18.6975 115.449 18.1755C115.836 17.6342 116.329 17.2088 116.928 16.8995C117.547 16.5708 118.195 16.3002 118.871 16.0875C119.548 15.8555 120.186 15.6428 120.785 15.4495C121.385 15.2368 121.878 14.9952 122.264 14.7245C122.651 14.4538 122.844 14.0962 122.844 13.6515V11.5345C122.844 10.9158 122.748 10.4132 122.554 10.0265C122.38 9.6205 122.11 9.32084 121.742 9.1275C121.394 8.91483 120.95 8.8085 120.408 8.8085C120.002 8.8085 119.577 8.8665 119.132 8.9825C118.688 9.0985 118.32 9.32083 118.03 9.6495C118.533 9.78483 118.92 10.0362 119.19 10.4035C119.48 10.7708 119.625 11.2155 119.625 11.7375C119.625 12.3368 119.422 12.8105 119.016 13.1585C118.63 13.4872 118.137 13.6515 117.537 13.6515C116.899 13.6515 116.416 13.4485 116.087 13.0425C115.759 12.6365 115.594 12.1628 115.594 11.6215C115.594 11.0802 115.73 10.6355 116 10.2875C116.271 9.92017 116.648 9.5915 117.131 9.3015C117.615 8.97283 118.233 8.71183 118.987 8.5185C119.741 8.32517 120.563 8.2285 121.452 8.2285C122.303 8.2285 123.057 8.32517 123.714 8.5185C124.372 8.6925 124.932 9.0115 125.396 9.4755C125.86 9.92017 126.16 10.4712 126.295 11.1285C126.431 11.7858 126.498 12.5882 126.498 13.5355V21.4815C126.498 21.9648 126.556 22.3128 126.672 22.5255C126.788 22.7188 126.972 22.8155 127.223 22.8155C127.417 22.8155 127.6 22.7672 127.774 22.6705C127.948 22.5738 128.142 22.4385 128.354 22.2645L128.673 22.7575C128.248 23.0862 127.803 23.3472 127.339 23.5405C126.875 23.7338 126.315 23.8305 125.657 23.8305C124.981 23.8305 124.439 23.7338 124.033 23.5405C123.647 23.3472 123.357 23.0668 123.163 22.6995C122.989 22.3322 122.893 21.8972 122.873 21.3945C122.409 22.1678 121.839 22.7672 121.162 23.1925C120.486 23.6178 119.674 23.8305 118.726 23.8305ZM120.466 22.2065C120.93 22.2065 121.356 22.0808 121.742 21.8295C122.148 21.5782 122.516 21.2012 122.844 20.6985V14.8405C122.651 15.1305 122.371 15.3915 122.003 15.6235C121.655 15.8555 121.278 16.0875 120.872 16.3195C120.466 16.5515 120.08 16.8222 119.712 17.1315C119.364 17.4215 119.065 17.7888 118.813 18.2335C118.581 18.6588 118.465 19.2098 118.465 19.8865C118.465 20.6405 118.649 21.2205 119.016 21.6265C119.384 22.0132 119.867 22.2065 120.466 22.2065Z" fill="#513126"/>
<defs>
<clipPath id="clip0_4925_11267">
<rect width="29" height="21.2502" fill="white" transform="matrix(-1 0 0 1 29 4.37488)"/>
</clipPath>
</defs>
</svg>
